<svg viewBox="0 0 230 275" version="1.1" id="svg5" xmlns="http://www.w3.org/2000/svg"><g id="canvas"><g id="source-1"><circle id="path165" cx="110" cy="215" r="30" fill="#000"/></g><g id="source-2"><circle id="path167" cx="200" cy="155" r="30" fill="#000"/></g><g id="mirror"><rect id="rect169" width="223.539" height="20.152" x="0" y="99.848" ry="0" transform="skewY(-26.53) scale(.8947 1)" fill="#000" stroke-width="1.061"/></g><g id="laser-1"><rect id="rect1138" width="16.557" height="133.097" x="57.676" y="115.187" rx="0" ry="0" transform="matrix(.81626 -.57769 .199 .98 0 0)" fill="red" fill-opacity="1" stroke-width=".696"/><circle id="path904" cx="81" cy="98" r="5" fill="#a1ff00"/><circle id="path990" cx="90" cy="135" r="5" fill="#4b00ff" fill-opacity="1"/><circle id="path3888" cx="100" cy="189" r="5" fill="#ff9300" fill-opacity="1"/></g><g id="laser-2"><rect id="rect1138-5" width="16.605" height="133.474" x="76.313" y="142.707" rx="0" ry="0" transform="matrix(.53292 -.84617 .5559 .83124 0 0)" fill="red" fill-opacity="1" stroke-width=".698"/><circle id="path904-1" cx="136" cy="64" r="5" fill="#a1ff00"/><circle id="path990-2" cx="160" cy="99" r="5" fill="#4b00ff" fill-opacity="1"/><circle id="path3888-7" cx="185" cy="140" r="5" fill="#ff9300" fill-opacity="1"/></g><g id="move"><path id="rect186" fill="#ff00e2" fill-opacity="1" stroke-width=".214" d="M105 255h20v20h-20z"/><circle id="path3888-7-7" cx="120.5" cy="260.5" r="2.5" fill="#ff9300" fill-opacity="1" stroke-width=".5"/><circle id="path904-1-5" cx="114.5" cy="269.5" r="2.5" fill="#a1ff00" stroke-width=".5"/><circle id="path990-2-8" cx="109.5" cy="260.5" r="2.5" fill="#4b00ff" fill-opacity="1" stroke-width=".5"/></g><g id="move-laser"><path id="rect1753" fill="#ff9300" stroke-width=".755" d="M65 257h40v15H65z"/></g></g></svg>